<svg width="406" height="189" viewBox="0 0 406 189" fill="none" xmlns="http://www.w3.org/2000/svg">
<g filter="url(#filter0_f_45_78)">
<path d="M15.6536 115L10 54.6197L374.402 44L378 104.077L15.6536 115Z" fill="#313131" fill-opacity="0.38"/>
</g>
<path d="M15.5 167L10 66.6496L364.5 49L368 148.846L15.5 167Z" fill="#FFAC16" stroke="white" stroke-width="3"/>
<path d="M286.5 189H122V162H286.5V189ZM154.265 168.454V177.9C154.265 178.961 154.515 179.889 155.017 180.685C155.518 181.48 156.222 182.101 157.126 182.546C158.03 182.986 159.087 183.206 160.294 183.206C161.496 183.206 162.55 182.986 163.454 182.546C164.358 182.101 165.062 181.48 165.563 180.685C166.07 179.889 166.324 178.961 166.324 177.9V168.454H163.249V177.638C163.249 178.192 163.125 178.684 162.879 179.115C162.637 179.546 162.295 179.885 161.85 180.131C161.409 180.377 160.891 180.5 160.294 180.5C159.702 180.5 159.183 180.377 158.738 180.131C158.293 179.885 157.948 179.546 157.702 179.115C157.461 178.684 157.34 178.192 157.34 177.638V168.454H154.265ZM214.104 168.256C212.826 168.256 211.675 168.55 210.652 169.137C209.63 169.719 208.82 170.566 208.224 171.679C207.627 172.791 207.329 174.141 207.329 175.728C207.329 177.309 207.623 178.656 208.21 179.769C208.802 180.881 209.606 181.731 210.624 182.318C211.647 182.905 212.807 183.199 214.104 183.199C215.037 183.199 215.873 183.06 216.611 182.78C217.355 182.496 217.994 182.112 218.529 181.629C219.069 181.141 219.497 180.59 219.814 179.975C220.136 179.354 220.337 178.71 220.418 178.043L217.308 178.028C217.237 178.417 217.108 178.762 216.924 179.065C216.744 179.368 216.517 179.627 216.242 179.84C215.968 180.048 215.653 180.207 215.298 180.315C214.948 180.424 214.566 180.479 214.154 180.479C213.42 180.479 212.774 180.298 212.215 179.938C211.656 179.579 211.221 179.046 210.908 178.341C210.601 177.635 210.446 176.764 210.446 175.728C210.446 174.719 210.6 173.862 210.908 173.156C211.216 172.446 211.649 171.906 212.208 171.537C212.767 171.163 213.423 170.976 214.176 170.976C214.592 170.976 214.978 171.035 215.333 171.153C215.693 171.272 216.011 171.443 216.285 171.665C216.56 171.888 216.785 172.158 216.96 172.475C217.135 172.787 217.251 173.145 217.308 173.547H220.418C220.319 172.704 220.091 171.956 219.736 171.303C219.386 170.649 218.932 170.097 218.373 169.647C217.814 169.193 217.173 168.847 216.448 168.61C215.729 168.374 214.947 168.256 214.104 168.256ZM168.3 168.454V170.99H172.753V183H175.793V170.99H180.246V168.454H168.3ZM182.214 168.454V183H185.289V177.844H187.533L190.289 183H193.684L190.596 177.347C190.64 177.327 190.686 177.31 190.729 177.29C191.52 176.921 192.123 176.39 192.54 175.699C192.957 175.003 193.165 174.172 193.165 173.206C193.165 172.245 192.959 171.409 192.547 170.699C192.14 169.984 191.546 169.432 190.765 169.044C189.988 168.651 189.051 168.454 187.952 168.454H182.214ZM195.339 168.454V183H205.168V180.465H198.414V176.991H204.636V174.456H198.414V170.99H205.14V168.454H195.339ZM222.624 168.454V183H225.699V176.991H231.941V183H235.01V168.454H231.941V174.456H225.699V168.454H222.624ZM236.991 168.454V170.99H241.444V183H244.484V170.99H248.938V168.454H236.991ZM187.362 170.969C187.954 170.969 188.445 171.056 188.833 171.231C189.226 171.402 189.517 171.653 189.706 171.984C189.9 172.316 189.997 172.723 189.997 173.206C189.997 173.684 189.9 174.084 189.706 174.406C189.517 174.728 189.228 174.97 188.84 175.131C188.452 175.292 187.964 175.372 187.377 175.372H185.289V170.969H187.362Z" fill="white"/>
<path d="M129.22 106.557L118.485 107.188L116.779 78.1469L127.499 77.5171C130.458 77.3433 133.04 77.775 135.245 78.8122C137.458 79.8395 139.211 81.4061 140.501 83.512C141.791 85.6086 142.525 88.1646 142.702 91.1803C142.879 94.2053 142.451 96.8392 141.416 99.0818C140.39 101.324 138.839 103.089 136.761 104.378C134.683 105.657 132.169 106.384 129.22 106.557ZM125.153 100.791L128.599 100.589C130.225 100.493 131.584 100.138 132.677 99.5241C133.778 98.8997 134.581 97.9466 135.084 96.6649C135.596 95.3731 135.791 93.6827 135.668 91.5935C135.546 89.5043 135.155 87.8577 134.496 86.6537C133.837 85.4403 132.919 84.5931 131.743 84.112C130.576 83.6209 129.16 83.4242 127.496 83.5219L124.15 83.7185L125.153 100.791ZM163.517 75.4011L170.522 74.9895L171.622 93.7214C171.749 95.8862 171.345 97.8025 170.409 99.4701C169.472 101.128 168.108 102.451 166.316 103.439C164.524 104.417 162.408 104.977 159.97 105.12C157.502 105.265 155.321 104.957 153.427 104.196C151.532 103.425 150.027 102.271 148.912 100.733C147.797 99.186 147.175 97.33 147.048 95.1652L145.948 76.4333L152.967 76.0209L154.031 94.143C154.09 95.1451 154.36 96.0257 154.841 96.7848C155.332 97.5433 155.987 98.1214 156.807 98.519C157.627 98.9167 158.562 99.0847 159.611 99.023C160.661 98.9614 161.565 98.6854 162.323 98.195C163.091 97.704 163.674 97.0532 164.072 96.2424C164.471 95.4317 164.64 94.5253 164.581 93.5232L163.517 75.4011ZM174.306 80.4873L173.971 74.7869L198.517 73.3448L198.852 79.0452L190.046 79.5625L191.417 102.903L184.497 103.31L183.126 79.9691L174.306 80.4873ZM227.598 82.1942L220.508 82.6107C220.37 81.8884 220.138 81.2428 219.811 80.6739C219.483 80.105 219.066 79.6267 218.56 79.2391C218.053 78.8515 217.462 78.5684 216.788 78.3898C216.122 78.2013 215.392 78.1303 214.598 78.177C213.19 78.2597 211.995 78.6761 211.015 79.4262C210.044 80.1757 209.323 81.2189 208.851 82.5557C208.389 83.8919 208.212 85.4864 208.321 87.3393C208.434 89.2678 208.803 90.8682 209.428 92.1406C210.062 93.4029 210.9 94.3355 211.94 94.9384C212.99 95.5313 214.205 95.7871 215.586 95.7061C216.361 95.6605 217.059 95.5199 217.681 95.2841C218.312 95.0479 218.858 94.7265 219.317 94.32C219.786 93.9036 220.161 93.412 220.44 92.8454C220.729 92.2687 220.914 91.627 220.996 90.9203L228.089 90.5463C228.041 91.8391 227.742 93.1278 227.192 94.4123C226.65 95.6963 225.871 96.8851 224.854 97.9789C223.836 99.0632 222.57 99.9533 221.055 100.649C219.55 101.345 217.8 101.751 215.805 101.869C213.177 102.023 210.789 101.585 208.642 100.553C206.503 99.5123 204.769 97.9162 203.437 95.7652C202.106 93.6142 201.347 90.9458 201.16 87.76C200.972 84.5648 201.423 81.8206 202.512 79.5274C203.601 77.2342 205.151 75.4498 207.163 74.1743C209.175 72.8988 211.472 72.1853 214.052 72.0336C215.811 71.9303 217.451 72.0806 218.974 72.4844C220.496 72.8788 221.851 73.5106 223.041 74.3798C224.23 75.2396 225.218 76.3246 226.007 77.6348C226.795 78.945 227.325 80.4648 227.598 82.1942ZM232.702 100.477L230.996 71.4366L238.015 71.0242L238.7 82.6802L250.143 82.0079L249.459 70.3519L256.464 69.9404L258.17 98.9812L251.165 99.3927L250.479 87.7225L239.036 88.3948L239.722 100.065L232.702 100.477Z" fill="white"/>
<path d="M51.6204 116.573C55.2599 116.359 58.7503 116.798 62.0916 117.889L63.0149 118.202L61.3987 123.579L60.454 123.317C57.2398 122.446 54.3573 122.086 51.8063 122.235C49.7916 122.354 47.9426 122.797 46.2595 123.564C44.5916 124.314 43.2215 125.275 42.149 126.447C41.0928 127.618 40.2899 128.936 39.7402 130.403C39.2068 131.87 38.9859 133.383 39.0775 134.942C39.172 136.551 39.5953 138.067 40.3474 139.49C41.1148 140.896 42.1321 142.116 43.3994 143.15C44.6819 144.167 46.2603 144.947 48.1345 145.489C50.0078 146.015 52.033 146.214 54.2103 146.086C56.8749 145.929 59.5119 145.301 62.1212 144.202L63.0044 143.833L65.2893 148.59L64.4104 149.033C60.9734 150.751 57.297 151.725 53.3812 151.955C50.3428 152.133 47.5534 151.833 45.0131 151.053C42.489 150.272 40.3754 149.124 38.6723 147.61C36.9683 146.08 35.6146 144.268 34.6112 142.175C33.6241 140.081 33.0579 137.799 32.9128 135.329C32.7658 132.827 33.0761 130.477 33.8438 128.28C34.6114 126.083 35.7776 124.147 37.3423 122.474C38.907 120.8 40.9142 119.443 43.3639 118.403C45.8136 117.362 48.5657 116.752 51.6204 116.573ZM88.0982 114.307C91.624 114.1 94.8004 114.606 97.6275 115.826C100.455 117.046 102.734 118.934 104.466 121.489C106.196 124.029 107.164 127.045 107.369 130.539C107.578 134.081 106.99 137.27 105.608 140.107C104.225 142.927 102.181 145.175 99.4746 146.85C96.7687 148.525 93.6041 149.47 89.9808 149.682C87.5924 149.823 85.3043 149.59 83.1166 148.985C80.9279 148.364 78.9391 147.396 77.15 146.083C75.3762 144.753 73.9188 142.979 72.7778 140.764C71.653 138.547 71.0066 136.009 70.8386 133.15C70.6295 129.591 71.2257 126.418 72.627 123.629C74.0274 120.824 76.0667 118.625 78.7449 117.033C81.4221 115.425 84.5398 114.516 88.0982 114.307ZM91.6474 120.188C90.5091 119.962 89.3551 119.883 88.1852 119.951C87.0153 120.02 85.8866 120.233 84.7989 120.591C83.7102 120.932 82.6723 121.441 81.6849 122.119C80.7128 122.779 79.8712 123.578 79.1601 124.517C78.4489 125.455 77.9045 126.596 77.5269 127.939C77.1483 129.265 77.0053 130.717 77.0979 132.293C77.3184 136.046 78.6573 138.992 81.1144 141.13C83.5715 143.268 86.5386 144.235 90.0156 144.031C91.4617 143.946 92.8452 143.628 94.1661 143.078C95.5033 142.527 96.7214 141.754 97.8206 140.76C98.9198 139.766 99.772 138.452 100.377 136.819C100.982 135.186 101.225 133.354 101.106 131.323C101.008 129.665 100.676 128.169 100.108 126.832C99.5397 125.48 98.8225 124.373 97.9567 123.51C97.107 122.647 96.1274 121.93 95.0178 121.36C93.9245 120.788 92.801 120.398 91.6474 120.188ZM116.732 112.992L124.19 112.554L136.862 131.765L147.368 111.192L154.46 110.775L156.495 145.408L150.353 145.769L148.831 119.861L139.924 136.428L134.124 136.769L123.387 121.356L124.909 147.264L118.767 147.624L116.732 112.992ZM167.377 110.016L173.519 109.655L175.554 144.288L169.412 144.649L167.377 110.016ZM205.798 107.514C209.437 107.301 212.928 107.74 216.269 108.831L217.192 109.144L215.576 114.521L214.631 114.259C211.417 113.388 208.535 113.028 205.984 113.177C203.969 113.296 202.12 113.739 200.437 114.506C198.769 115.256 197.399 116.217 196.327 117.389C195.27 118.559 194.467 119.878 193.918 121.345C193.384 122.812 193.163 124.324 193.255 125.884C193.35 127.493 193.773 129.009 194.525 130.432C195.292 131.838 196.31 133.058 197.577 134.092C198.859 135.109 200.438 135.889 202.312 136.431C204.185 136.957 206.211 137.156 208.388 137.028C211.052 136.871 213.689 136.243 216.299 135.144L217.182 134.775L219.467 139.532L218.588 139.975C215.151 141.693 211.474 142.667 207.559 142.897C204.52 143.075 201.731 142.775 199.191 141.995C196.666 141.214 194.553 140.066 192.85 138.552C191.146 137.022 189.792 135.21 188.789 133.117C187.802 131.023 187.235 128.741 187.09 126.271C186.943 123.769 187.254 121.419 188.021 119.222C188.789 117.025 189.955 115.089 191.52 113.416C193.085 111.742 195.092 110.385 197.541 109.345C199.991 108.304 202.743 107.694 205.798 107.514ZM258.831 104.399C262.471 104.185 265.961 104.624 269.303 105.716L270.226 106.028L268.61 111.406L267.665 111.143C264.451 110.272 261.568 109.912 259.017 110.062C257.003 110.18 255.154 110.623 253.471 111.39C251.803 112.14 250.433 113.101 249.36 114.273C248.304 115.444 247.501 116.763 246.951 118.23C246.418 119.696 246.197 121.209 246.289 122.769C246.383 124.377 246.806 125.893 247.558 127.316C248.326 128.722 249.343 129.942 250.61 130.976C251.893 131.993 253.471 132.773 255.346 133.315C257.219 133.841 259.244 134.04 261.421 133.912C264.086 133.755 266.723 133.128 269.332 132.029L270.215 131.659L272.5 136.416L271.621 136.859C268.184 138.577 264.508 139.551 260.592 139.781C257.554 139.96 254.764 139.659 252.224 138.879C249.7 138.098 247.586 136.95 245.883 135.436C244.179 133.906 242.826 132.094 241.822 130.001C240.835 127.907 240.269 125.625 240.124 123.155C239.977 120.653 240.287 118.303 241.055 116.106C241.822 113.909 242.989 111.973 244.553 110.3C246.118 108.627 248.125 107.27 250.575 106.229C253.025 105.188 255.777 104.578 258.831 104.399ZM295.309 102.133C298.835 101.926 302.011 102.433 304.839 103.652C307.666 104.872 309.945 106.76 311.677 109.316C313.407 111.855 314.375 114.872 314.58 118.365C314.789 121.907 314.202 125.096 312.819 127.933C311.436 130.753 309.392 133.001 306.686 134.676C303.98 136.352 300.815 137.296 297.192 137.509C294.803 137.649 292.515 137.417 290.328 136.811C288.139 136.19 286.15 135.223 284.361 133.909C282.587 132.579 281.13 130.806 279.989 128.59C278.864 126.374 278.218 123.836 278.05 120.976C277.841 117.418 278.437 114.244 279.838 111.455C281.238 108.65 283.278 106.452 285.956 104.859C288.633 103.251 291.751 102.342 295.309 102.133ZM298.858 108.014C297.72 107.788 296.566 107.709 295.396 107.778C294.226 107.846 293.098 108.059 292.01 108.417C290.921 108.758 289.883 109.267 288.896 109.945C287.924 110.605 287.082 111.405 286.371 112.343C285.66 113.282 285.116 114.422 284.738 115.765C284.359 117.092 284.216 118.543 284.309 120.119C284.53 123.872 285.868 126.818 288.325 128.956C290.783 131.095 293.75 132.061 297.227 131.857C298.673 131.772 300.056 131.455 301.377 130.904C302.714 130.353 303.932 129.58 305.032 128.586C306.131 127.592 306.983 126.279 307.588 124.645C308.193 123.012 308.436 121.18 308.317 119.149C308.219 117.491 307.887 115.995 307.319 114.659C306.751 113.306 306.034 112.199 305.168 111.337C304.318 110.473 303.338 109.757 302.229 109.186C301.136 108.614 300.012 108.224 298.858 108.014ZM323.943 100.818L330.719 100.42L351.61 125.899L350.046 99.2844L356.188 98.9235L358.222 133.556L351.374 133.959L330.553 108.427L332.12 135.09L325.978 135.451L323.943 100.818Z" fill="white"/>
<path d="M75 55.5V7H239.5V49.5L189 55.5V44.5H131L121.5 49.5L75 55.5Z" fill="black" stroke="black"/>
<path d="M75 68.5V11H239.5V54L189 56L131 48.5L103.5 68L75 68.5Z" fill="black"/>
<path d="M102.492 33.9883L102.475 36.0801C102.475 36.959 102.486 38.3477 102.51 40.2461C102.346 40.4688 101.045 40.5801 98.6074 40.5801C96.1699 40.5801 93.9902 40.5449 92.0684 40.4746C92.0449 40.4512 91.9336 40.3047 91.7344 40.0352V37.2227L91.7695 31.8262C91.7695 31.2988 91.7109 30.9883 91.5938 30.8945C91.4766 30.8008 91.1191 30.7539 90.5215 30.7539H90.2754C89.1621 30.7539 88.2832 30.8066 87.6387 30.9121V33.373L87.6035 40.1758C87.4277 40.3633 85.957 40.457 83.1914 40.457H82.3477C79.957 40.457 78.2168 40.4219 77.127 40.3516C76.9043 40.2812 76.793 39.4492 76.793 37.8555L76.8984 33.9707L77.0742 18.2207V17.377C77.0859 17.2012 77.0918 16.5918 77.0918 15.5488C77.0918 14.4941 77.1562 13.8262 77.2852 13.5449H77.373C78.1465 13.5684 78.7148 13.5801 79.0781 13.5801H81.0469L83.1738 13.5449H83.8418C85.834 13.5449 86.9941 13.7734 87.3223 14.2305C87.4863 14.4648 87.5684 14.8223 87.5684 15.3027L87.5156 17.5V18.3262L87.4102 21.8066C87.4102 22.0645 87.4277 22.4043 87.4629 22.8262H88.5527L88.9922 22.8438H90.3984C90.9141 22.8438 91.4414 22.8027 91.9805 22.7207V18.5547L91.998 17.2539V16.041L91.9805 15.7598V14.8633C91.9805 14.1719 92.0098 13.75 92.0684 13.5977C92.1387 13.4453 92.3086 13.3691 92.5781 13.3691L92.9297 13.3867H94.0723L97.8691 13.2812C100.893 13.2812 102.404 13.5215 102.404 14.002V15.25L102.422 15.6719L102.404 16.5859V19.3105L102.492 30.5254C102.492 30.7129 102.48 30.959 102.457 31.2637V32.1074C102.457 32.4824 102.469 32.9746 102.492 33.584V33.9883ZM106.078 18.2383L105.99 13.6152C106.002 13.6152 106.043 13.6328 106.113 13.668C115.02 13.5156 121.729 13.4336 126.24 13.4219C126.287 13.4453 126.322 13.4805 126.346 13.5273V18.4844C126.346 18.9648 126.334 19.3574 126.311 19.6621C126.252 19.8496 125.906 19.9434 125.273 19.9434H125.15C122.314 19.9434 119.361 19.8965 116.291 19.8027C116.291 19.9082 116.273 20.0957 116.238 20.3652C116.215 20.6348 116.197 20.8281 116.186 20.9453L116.098 21.6133C116.039 22.0586 115.998 22.832 115.975 23.9336L121.424 23.8105C122.361 23.7871 123.041 23.7754 123.463 23.7754H123.744C124.459 23.7754 124.928 23.7988 125.15 23.8457C125.373 23.8809 125.484 23.998 125.484 24.1973L125.467 24.3379V24.7598L125.555 29.2773L125.537 29.2949V29.2773C121.975 29.4531 119.127 29.541 116.994 29.541H116.168V33.7949L125.713 33.4961C126.24 33.4961 126.574 33.5723 126.715 33.7246C126.703 34.0293 126.697 34.4629 126.697 35.0254L126.82 39.8066C126.82 40.0996 126.691 40.2695 126.434 40.3164L120.598 40.2637C119.449 40.2637 117.164 40.3047 113.742 40.3867L110.859 40.457C108.82 40.5273 107.309 40.5625 106.324 40.5625L106.271 40.5273H106.289C106.172 40.4102 106.061 40.2988 105.955 40.1934V39.5781L106.061 20.7871L106.078 18.2383ZM136.857 13.5625L142.5 13.5098C143.695 13.5098 144.779 13.5332 145.752 13.5801C148.365 13.6504 150.352 14.2656 151.711 15.4258C153.082 16.5859 153.768 18.2207 153.768 20.3301C153.768 21.7949 153.34 23.0488 152.484 24.0918C151.629 25.123 150.381 26.0312 148.74 26.8164C151.342 27.6367 152.918 29.6289 153.469 32.793C153.598 33.4844 153.697 34.2754 153.768 35.166C153.85 36.0566 153.914 36.6543 153.961 36.959L154.137 37.8555C154.324 38.9102 154.488 39.6719 154.629 40.1406L154.559 40.1934C152.566 40.3223 150.744 40.3867 149.092 40.3867C147.451 40.3867 145.998 40.3574 144.732 40.2988H144.627C144.264 40.2988 143.877 38.5703 143.467 35.1133L143.379 34.3574C143.332 33.0684 143.104 32.2012 142.693 31.7559C142.295 31.3105 141.598 31.0879 140.602 31.0879L140.373 31.1055H139.441V36.4492L139.459 37.0117V40.2285C139.424 40.3457 139.336 40.416 139.195 40.4395C137.906 40.4863 136.084 40.5098 133.729 40.5098C131.385 40.5098 129.838 40.5156 129.088 40.5273L128.982 40.4922L128.947 40.5098C128.924 40.5098 128.889 40.4922 128.842 40.457L128.877 38.875L128.859 38.3477L128.93 31.0527V29.7695L128.947 28.4512L128.965 23.8984L128.982 23.3008L128.93 19.3105C128.93 19.3105 128.953 17.4414 129 13.7031C129 13.6094 129.334 13.5625 130.002 13.5625L131.127 13.5801H132.199L134.432 13.5977L136.857 13.5625ZM154.734 40.0879L154.646 40.1406V40.1055C154.646 40.0938 154.676 40.0879 154.734 40.0879ZM154.646 40.1406V40.1582C154.635 40.1582 154.629 40.1523 154.629 40.1406H154.646ZM143.361 19.293C142.658 18.9883 141.721 18.8359 140.549 18.8359H139.529C139.4 19.0234 139.336 20.0137 139.336 21.8066C139.336 23.5879 139.365 24.7832 139.424 25.3926C143.092 25.3105 144.926 24.0449 144.926 21.5957C144.926 20.5527 144.404 19.7852 143.361 19.293ZM165.211 26.6406C165.211 26.6523 165.205 26.6816 165.193 26.7285V26.7812C165.146 27.2734 165.123 27.8242 165.123 28.4336C165.123 29.043 165.17 29.6875 165.264 30.3672C165.369 31.0469 165.533 31.7266 165.756 32.4062C165.99 33.0859 166.348 33.6367 166.828 34.0586C167.344 34.5039 167.918 34.7266 168.551 34.7266C169.195 34.7266 169.734 34.6387 170.168 34.4629C170.613 34.2754 170.982 34.041 171.275 33.7598C171.58 33.4785 171.844 33.0977 172.066 32.6172C172.629 31.3398 172.91 29.3594 172.91 26.6758C172.91 23.9453 172.594 22.0352 171.961 20.9453C171.34 19.8438 170.396 19.293 169.131 19.293C168.498 19.293 167.941 19.4453 167.461 19.75C166.992 20.0547 166.635 20.3711 166.389 20.6992C166.154 21.0273 165.908 21.7246 165.65 22.791C165.404 23.8574 165.281 24.8418 165.281 25.7441L165.211 26.6406ZM155.104 26.7812L155.139 26.3945C155.279 24.9297 155.467 23.6348 155.701 22.5098C155.936 21.373 156.316 20.3125 156.844 19.3281C158.098 17.1602 159.844 15.5195 162.082 14.4062C164.332 13.2812 166.752 12.7188 169.342 12.7188C171.943 12.7188 174.305 13.2402 176.426 14.2832C177.691 14.9043 178.682 15.6895 179.396 16.6387C180.768 18.3496 181.67 19.9258 182.104 21.3672C182.537 22.8086 182.754 24.4727 182.754 26.3594C182.754 30.5547 181.887 33.7539 180.152 35.957L179.344 37.0293C178.254 38.2949 176.713 39.2734 174.721 39.9648C172.729 40.6445 170.754 40.9961 168.797 41.0195C165.445 41.0195 162.697 40.3164 160.553 38.9102C156.92 36.5547 155.104 32.5117 155.104 26.7812ZM185.426 18.2383L185.338 13.6152C185.35 13.6152 185.391 13.6328 185.461 13.668C194.367 13.5156 201.076 13.4336 205.588 13.4219C205.635 13.4453 205.67 13.4805 205.693 13.5273V18.4844C205.693 18.9648 205.682 19.3574 205.658 19.6621C205.6 19.8496 205.254 19.9434 204.621 19.9434H204.498C201.662 19.9434 198.709 19.8965 195.639 19.8027C195.639 19.9082 195.621 20.0957 195.586 20.3652C195.562 20.6348 195.545 20.8281 195.533 20.9453L195.445 21.6133C195.387 22.0586 195.346 22.832 195.322 23.9336L200.771 23.8105C201.709 23.7871 202.389 23.7754 202.811 23.7754H203.092C203.807 23.7754 204.275 23.7988 204.498 23.8457C204.721 23.8809 204.832 23.998 204.832 24.1973L204.814 24.3379V24.7598L204.902 29.2773L204.885 29.2949V29.2773C201.322 29.4531 198.475 29.541 196.342 29.541H195.516V33.7949L205.061 33.4961C205.588 33.4961 205.922 33.5723 206.062 33.7246C206.051 34.0293 206.045 34.4629 206.045 35.0254L206.168 39.8066C206.168 40.0996 206.039 40.2695 205.781 40.3164L199.945 40.2637C198.797 40.2637 196.512 40.3047 193.09 40.3867L190.207 40.457C188.168 40.5273 186.656 40.5625 185.672 40.5625L185.619 40.5273H185.637C185.52 40.4102 185.408 40.2988 185.303 40.1934V39.5781L185.408 20.7871L185.426 18.2383ZM207.469 32.7402L216.768 32.582C217.002 32.582 217.195 32.7812 217.348 33.1797C217.512 33.5781 217.67 33.8945 217.822 34.1289C218.186 34.6914 218.783 34.9727 219.615 34.9727C220.459 34.9727 221.139 34.7793 221.654 34.3926C222.17 33.9941 222.428 33.4844 222.428 32.8633C222.428 32.2422 222.27 31.8203 221.953 31.5977C221.637 31.3633 221.291 31.1406 220.916 30.9297C220.541 30.707 219.984 30.5371 219.246 30.4199C218.52 30.3027 218.121 30.2324 218.051 30.209H218.086L217.084 29.9453C216.439 29.8281 215.9 29.6992 215.467 29.5586C212.666 28.8086 210.639 27.8652 209.385 26.7285C208.143 25.5918 207.521 24.0625 207.521 22.1406C207.521 20.7461 207.779 19.4922 208.295 18.3789C208.811 17.2656 209.484 16.3574 210.316 15.6543C212.719 13.627 216.035 12.6133 220.266 12.6133C223.629 12.6133 226.271 13.2227 228.193 14.4414H228.176C229.406 15.332 230.25 16.2109 230.707 17.0781C231.164 17.9336 231.451 18.9941 231.568 20.2598L231.111 20.7168C228.029 20.834 225.299 20.8926 222.92 20.8926C222.205 20.8926 221.777 20.6816 221.637 20.2598C221.578 20.084 221.514 19.9082 221.443 19.7324C221.279 19.3105 220.752 19.0996 219.861 19.0996H219.791C219.1 19.0996 218.508 19.2637 218.016 19.5918C217.523 19.9082 217.271 20.2188 217.26 20.5234C217.26 20.8281 217.324 21.0801 217.453 21.2793C217.594 21.4785 217.74 21.6367 217.893 21.7539C218.045 21.8711 218.279 21.9941 218.596 22.123C218.912 22.2402 219.146 22.3223 219.299 22.3691C219.463 22.4043 219.715 22.4688 220.055 22.5625L220.67 22.7207C220.916 22.791 221.631 22.9668 222.814 23.248C224.01 23.5293 225.006 23.7988 225.803 24.0566V24.0391C228.299 24.8828 229.998 25.9375 230.9 27.2031C231.814 28.457 232.271 29.9219 232.271 31.5977C232.271 36.0625 229.605 38.957 224.273 40.2812C222.727 40.668 221.074 40.9434 219.316 41.1074C217.16 41.1074 215.027 40.791 212.918 40.1582C210.809 39.5254 209.396 38.4941 208.682 37.0645C208.201 36.373 207.879 35.7402 207.715 35.166C207.551 34.5801 207.416 33.7656 207.311 32.7227C207.346 32.7344 207.398 32.7402 207.469 32.7402Z" fill="white"/>
<defs>
<filter id="filter0_f_45_78" x="0" y="34" width="388" height="91" filterUnits="userSpaceOnUse" color-interpolation-filters="sRGB">
<feFlood flood-opacity="0" result="BackgroundImageFix"/>
<feBlend mode="normal" in="SourceGraphic" in2="BackgroundImageFix" result="shape"/>
<feGaussianBlur stdDeviation="5" result="effect1_foregroundBlur_45_78"/>
</filter>
</defs>
</svg>
